<svg xmlns="http://www.w3.org/2000/svg" xmlns:xlink="http://www.w3.org/1999/xlink" width="24" height="24" viewBox="0 0 24 24">
  <defs>
    <clipPath id="clip-path">
      <rect id="Rectangle_120" data-name="Rectangle 120" width="24" height="24" transform="translate(71 394)" fill="#a3cb38" stroke="#707070" stroke-width="1"/>
    </clipPath>
  </defs>
  <g id="Mask_Group_31" data-name="Mask Group 31" transform="translate(-71 -394)" clip-path="url(#clip-path)">
    <g id="mop" transform="translate(71 394)">
      <path id="Path_198" data-name="Path 198" d="M.855,8.149a4.051,4.051,0,0,1,1.583.982,4.051,4.051,0,0,1,.982,1.583.7.7,0,0,0,1.336,0A4.086,4.086,0,0,1,7.32,8.149a.7.7,0,0,0,0-1.336A4.086,4.086,0,0,1,4.755,4.248a.7.7,0,0,0-1.336,0,4.051,4.051,0,0,1-.982,1.583,4.052,4.052,0,0,1-1.583.982.7.7,0,0,0,0,1.336Z" fill="#a3cb38"/>
      <path id="Path_199" data-name="Path 199" d="M11.677,7.481a.7.7,0,0,0,.7.7h.8v.8a.7.7,0,0,0,1.406,0v-.8h.8a.7.7,0,0,0,0-1.406h-.8v-.8a.7.7,0,1,0-1.406,0v.8h-.8a.7.7,0,0,0-.7.7Z" fill="#a3cb38"/>
      <path id="Path_200" data-name="Path 200" d="M8.615,2.912h.8v.8a.7.7,0,0,0,1.406,0v-.8h.8a.7.7,0,0,0,0-1.406h-.8V.7A.7.7,0,0,0,9.418.7v.8h-.8a.7.7,0,0,0,0,1.406Z" fill="#a3cb38"/>
      <path id="Path_201" data-name="Path 201" d="M12.161,21.2a3.574,3.574,0,0,0,1.4-.545c.025-.017.049-.035.073-.053l1.278-6.392h.478a.7.7,0,1,0,0-1.406H1.837a.7.7,0,0,0,0,1.406h.478l1.262,6.312a1.178,1.178,0,0,0,.2-.163l4.336-4.336a.7.7,0,0,1,.994.994L4.776,21.352a2.665,2.665,0,0,1-.915.588l.3,1.495A.7.7,0,0,0,4.849,24h5.542a2.111,2.111,0,0,1,1.77-2.8Z" fill="#a3cb38"/>
      <path id="Path_202" data-name="Path 202" d="M2.508,20.611a1.165,1.165,0,0,1-.721-1.08,1.114,1.114,0,0,1,.077-.407L1.51,17.357l-.391.391a2.5,2.5,0,0,0-.738,1.783A2.567,2.567,0,0,0,1.97,21.91a2.5,2.5,0,0,0,1.891.03l-.284-1.419a1.165,1.165,0,0,1-1.069.09Z" fill="#a3cb38"/>
      <path id="Path_203" data-name="Path 203" d="M20.615,12.952V.7a.7.7,0,0,0-1.406,0V12.952a5.124,5.124,0,0,1,1.406,0Z" fill="#a3cb38"/>
      <path id="Path_204" data-name="Path 204" d="M19.912,14.309A3.72,3.72,0,0,0,16.2,18.025,4.389,4.389,0,0,1,12.311,22.6a.7.7,0,0,0,.07,1.4h5.272c5.295,0,5.975-3.986,5.975-5.975a3.72,3.72,0,0,0-3.716-3.716Z" fill="#a3cb38"/>
    </g>
  </g>
</svg>
