<svg xmlns="http://www.w3.org/2000/svg" xmlns:xlink="http://www.w3.org/1999/xlink" width="24" height="24" viewBox="0 0 24 24">
  <defs>
    <clipPath id="clip-path">
      <rect id="Rectangle_127" data-name="Rectangle 127" width="24" height="24" transform="translate(71 391)" fill="#0ab41b" stroke="#707070" stroke-width="1"/>
    </clipPath>
  </defs>
  <g id="Mask_Group_36" data-name="Mask Group 36" transform="translate(-71 -391)" clip-path="url(#clip-path)">
    <g id="college-graduation_1_" data-name="college-graduation (1)" transform="translate(71 391)">
      <g id="Layer_5_59_">
        <g id="Group_185" data-name="Group 185">
          <path id="Path_211" data-name="Path 211" d="M13.54,16.638a3.123,3.123,0,0,1-3.081,0L3.486,12.361s-.629-.386-.629.488V17.12C2.856,19.37,6.95,21.8,12,21.8s9.144-2.425,9.144-4.675V12.608c0-.7-.447-.359-.447-.359Z" fill="#0ab41b"/>
          <path id="Path_212" data-name="Path 212" d="M23.6,8.959a.645.645,0,0,0,0-1.2L12.974,2.451a2.049,2.049,0,0,0-1.949,0L.4,7.764a.645.645,0,0,0,0,1.2l10.624,6.516a2.049,2.049,0,0,0,1.949,0" fill="#0ab41b"/>
          <path id="Path_213" data-name="Path 213" d="M23.159,18.616v-7.2s0-.341-.2-.228a5.879,5.879,0,0,0-.7.434.6.6,0,0,0-.125.456v6.534a.192.192,0,0,1-.118.159,1.243,1.243,0,1,0,1.254,0A.185.185,0,0,1,23.159,18.616Z" fill="#0ab41b"/>
        </g>
      </g>
    </g>
  </g>
</svg>
