<svg xmlns="http://www.w3.org/2000/svg" xmlns:xlink="http://www.w3.org/1999/xlink" width="24" height="24" viewBox="0 0 24 24">
  <defs>
    <clipPath id="clip-path">
      <rect id="Rectangle_88" data-name="Rectangle 88" width="24" height="24" transform="translate(71 394)" fill="#22c6c6"/>
    </clipPath>
  </defs>
  <g id="Mask_Group_4" data-name="Mask Group 4" transform="translate(-71 -394)" clip-path="url(#clip-path)">
    <path id="doctor" d="M19,5H16V4a3,3,0,0,0-3-3H11A3,3,0,0,0,8,4V5H5a5.006,5.006,0,0,0-5,5v8a5.006,5.006,0,0,0,5,5H19a5.006,5.006,0,0,0,5-5V10a5.006,5.006,0,0,0-5-5ZM10,4a1,1,0,0,1,1-1h2a1,1,0,0,1,1,1V5H10ZM22,18a3,3,0,0,1-3,3H5a3,3,0,0,1-3-3V10A3,3,0,0,1,5,7H19a3,3,0,0,1,3,3Zm-6-4a1,1,0,0,1-1,1H13v2a1,1,0,0,1-2,0V15H9a1,1,0,0,1,0-2h2V11a1,1,0,0,1,2,0v2h2A1,1,0,0,1,16,14Z" transform="translate(71 394)" fill="#22c6c6"/>
  </g>
</svg>
