<svg xmlns="http://www.w3.org/2000/svg" xmlns:xlink="http://www.w3.org/1999/xlink" width="24" height="24" viewBox="0 0 24 24">
  <defs>
    <clipPath id="clip-path">
      <rect id="Rectangle_118" data-name="Rectangle 118" width="24" height="24" transform="translate(71 394)" fill="#6d24d2" stroke="#707070" stroke-width="1"/>
    </clipPath>
  </defs>
  <g id="Mask_Group_29" data-name="Mask Group 29" transform="translate(-71 -394)" clip-path="url(#clip-path)">
    <g id="pawprint" transform="translate(71 394)">
      <path id="Path_188" data-name="Path 188" d="M19.181,15.5l-.224-.174a2.186,2.186,0,0,1-.812-1.2C17.5,11.5,15.2,9.938,12,9.938S6.5,11.5,5.855,14.13a2.186,2.186,0,0,1-.812,1.2l-.224.174C3.508,16.511,2.473,17.308,3,19.672A5.619,5.619,0,0,0,7.357,23.89,5.86,5.86,0,0,0,8.482,24a5.608,5.608,0,0,0,2.25-.467,3.179,3.179,0,0,1,2.535,0h0a5.69,5.69,0,0,0,3.376.357A5.618,5.618,0,0,0,21,19.672c.532-2.364-.5-3.161-1.814-4.168Zm0,0" fill="#6d24d2"/>
      <path id="Path_189" data-name="Path 189" d="M8.484,7.031c1.551,0,2.813-1.577,2.813-3.516S10.035,0,8.484,0,5.672,1.577,5.672,3.516,6.933,7.031,8.484,7.031Zm0,0" fill="#6d24d2"/>
      <path id="Path_190" data-name="Path 190" d="M15.516,7.031c1.551,0,2.813-1.577,2.813-3.516S17.067,0,15.516,0,12.7,1.577,12.7,3.516,13.965,7.031,15.516,7.031Zm0,0" fill="#6d24d2"/>
      <path id="Path_191" data-name="Path 191" d="M5.625,9.188c0-1.938-1.261-3.516-2.812-3.516S0,7.249,0,9.188,1.261,12.7,2.813,12.7,5.625,11.126,5.625,9.188Zm0,0" fill="#6d24d2"/>
      <path id="Path_192" data-name="Path 192" d="M21.188,5.672c-1.551,0-2.812,1.577-2.812,3.516S19.636,12.7,21.188,12.7,24,11.126,24,9.188,22.739,5.672,21.188,5.672Zm0,0" fill="#6d24d2"/>
    </g>
  </g>
</svg>
