<svg xmlns="http://www.w3.org/2000/svg" xmlns:xlink="http://www.w3.org/1999/xlink" width="24" height="24" viewBox="0 0 24 24">
  <defs>
    <clipPath id="clip-path">
      <rect id="Rectangle_117" data-name="Rectangle 117" width="24" height="24" transform="translate(71 394)" fill="#0898ff" stroke="#707070" stroke-width="1"/>
    </clipPath>
  </defs>
  <g id="Mask_Group_28" data-name="Mask Group 28" transform="translate(-71 -394)" clip-path="url(#clip-path)">
    <g id="_x32_8-Island" transform="translate(63.308 386.308)">
      <g id="Group_176" data-name="Group 176">
        <path id="Path_186" data-name="Path 186" d="M19.1,22.622c-5.951,0-10.792,3.3-10.792,7.353,0,.425,0,1.717,10.792,1.717S29.891,30.4,29.891,29.975C29.891,25.921,25.05,22.622,19.1,22.622Z" fill="#0898ff"/>
        <path id="Path_187" data-name="Path 187" d="M30.868,12.394a7.752,7.752,0,0,0-10.3.192A6.745,6.745,0,0,0,17.9,9.011,7.64,7.64,0,0,0,13.56,7.692a8.055,8.055,0,0,0-1.619.165.615.615,0,0,0-.323,1.026,29.887,29.887,0,0,0,3.654,3.168,8.2,8.2,0,0,0-.91.1A7.859,7.859,0,0,0,9.074,15.6a.616.616,0,0,0,.505.947s.107,0,.3,0h0a32.936,32.936,0,0,0,8.015-.975,19.446,19.446,0,0,0-1.27,5.994,17.085,17.085,0,0,1,2.474-.178,16.585,16.585,0,0,1,2.369.166,20.742,20.742,0,0,1-.268-5.614,29.645,29.645,0,0,0,6.8,5.008.615.615,0,0,0,.9-.531,6.9,6.9,0,0,0-2.57-5.5,7.448,7.448,0,0,0-.667-.489,33.44,33.44,0,0,0,4.967-.985.615.615,0,0,0,.233-1.052Z" fill="#0898ff"/>
      </g>
    </g>
  </g>
</svg>
